<?xml version="1.0" encoding="UTF-8"?>
<svg xmlns="http://www.w3.org/2000/svg" xmlns:xlink="http://www.w3.org/1999/xlink" width="17px" height="17px" viewBox="0 0 17 17" version="1.1">
<g id="surface1">
<path style=" stroke:none;fill-rule:nonzero;fill:rgb(49.803922%,22.745098%,52.549022%);fill-opacity:1;" d="M 14.710938 12.21875 C 14.8125 12.039062 14.875 11.835938 14.875 11.65625 L 14.875 5.34375 C 14.875 5.164062 14.8125 4.960938 14.710938 4.78125 L 8.5 8.5 Z M 14.710938 12.21875 "/>
<path style=" stroke:none;fill-rule:nonzero;fill:rgb(40.000001%,14.509805%,47.450981%);fill-opacity:1;" d="M 9.050781 15.800781 L 14.324219 12.644531 C 14.476562 12.554688 14.613281 12.398438 14.714844 12.21875 L 8.5 8.5 L 2.289062 12.21875 C 2.386719 12.398438 2.527344 12.554688 2.675781 12.644531 L 7.949219 15.800781 C 8.25 15.984375 8.75 15.984375 9.050781 15.800781 Z M 9.050781 15.800781 "/>
<path style=" stroke:none;fill-rule:nonzero;fill:rgb(60.392159%,31.764707%,58.823532%);fill-opacity:1;" d="M 14.710938 4.78125 C 14.613281 4.601562 14.476562 4.445312 14.324219 4.355469 L 9.050781 1.199219 C 8.75 1.015625 8.25 1.015625 7.949219 1.199219 L 2.675781 4.355469 C 2.375 4.535156 2.125 4.980469 2.125 5.34375 L 2.125 11.65625 C 2.125 11.835938 2.1875 12.039062 2.289062 12.21875 Z M 14.710938 4.78125 "/>
<path style=" stroke:none;fill-rule:nonzero;fill:rgb(100%,100%,100%);fill-opacity:1;" d="M 8.519531 12.75 C 6.164062 12.75 4.25 10.84375 4.25 8.5 C 4.25 6.15625 6.164062 4.25 8.519531 4.25 C 10.011719 4.25 11.40625 5.035156 12.175781 6.300781 L 10.347656 7.398438 C 9.960938 6.765625 9.265625 6.375 8.519531 6.375 C 7.34375 6.375 6.386719 7.328125 6.386719 8.5 C 6.386719 9.671875 7.34375 10.625 8.519531 10.625 C 9.261719 10.625 9.957031 10.234375 10.34375 9.605469 L 12.175781 10.695312 C 11.40625 11.964844 10.011719 12.75 8.519531 12.75 Z M 8.519531 12.75 "/>
<path style=" stroke:none;fill-rule:evenodd;fill:rgb(100%,100%,100%);fill-opacity:1;" d="M 13.28125 6.90625 L 13.28125 7.4375 L 12.21875 7.4375 L 12.21875 6.90625 L 11.6875 6.90625 L 11.6875 7.4375 L 11.15625 7.4375 L 11.15625 7.96875 L 11.6875 7.96875 L 11.6875 9.027344 L 11.15625 9.027344 L 11.15625 9.5625 L 11.6875 9.5625 L 11.6875 10.09375 L 12.21875 10.09375 L 12.21875 9.5625 L 13.28125 9.5625 L 13.28125 10.09375 L 13.8125 10.09375 L 13.8125 9.5625 L 14.34375 9.5625 L 14.34375 9.03125 L 13.8125 9.03125 L 13.8125 7.96875 L 14.34375 7.96875 L 14.34375 7.4375 L 13.8125 7.4375 L 13.8125 6.90625 Z M 13.28125 9.03125 L 13.28125 7.96875 L 12.21875 7.96875 L 12.21875 9.027344 Z M 13.28125 9.03125 "/>
</g>
</svg>
