<?xml version="1.0" encoding="UTF-8"?>
<svg xmlns="http://www.w3.org/2000/svg" xmlns:xlink="http://www.w3.org/1999/xlink" width="17px" height="17px" viewBox="0 0 17 17" version="1.1">
<g id="surface1">
<path style=" stroke:none;fill-rule:evenodd;fill:rgb(0%,0%,0%);fill-opacity:1;" d="M 8.5 0 C 13.195312 0 17 3.902344 17 8.714844 C 17 12.566406 14.566406 15.832031 11.191406 16.984375 C 10.761719 17.070312 10.609375 16.796875 10.609375 16.566406 C 10.609375 16.277344 10.617188 15.339844 10.617188 14.171875 C 10.617188 13.359375 10.347656 12.832031 10.042969 12.558594 C 11.933594 12.34375 13.921875 11.609375 13.921875 8.261719 C 13.921875 7.308594 13.59375 6.53125 13.046875 5.921875 C 13.136719 5.699219 13.425781 4.8125 12.964844 3.613281 C 12.964844 3.613281 12.25 3.378906 10.628906 4.507812 C 9.949219 4.316406 9.222656 4.21875 8.5 4.214844 C 7.777344 4.21875 7.050781 4.316406 6.371094 4.507812 C 4.75 3.378906 4.035156 3.613281 4.035156 3.613281 C 3.574219 4.8125 3.863281 5.699219 3.953125 5.921875 C 3.410156 6.53125 3.074219 7.308594 3.074219 8.261719 C 3.074219 11.597656 5.0625 12.347656 6.949219 12.566406 C 6.707031 12.785156 6.484375 13.167969 6.410156 13.734375 C 5.925781 13.957031 4.695312 14.339844 3.933594 13.007812 C 3.933594 13.007812 3.484375 12.171875 2.632812 12.109375 C 2.632812 12.109375 1.804688 12.097656 2.574219 12.640625 C 2.574219 12.640625 3.132812 12.90625 3.519531 13.914062 C 3.519531 13.914062 4.015625 15.46875 6.382812 14.941406 C 6.386719 15.671875 6.394531 16.359375 6.394531 16.566406 C 6.394531 16.796875 6.238281 17.066406 5.8125 16.984375 C 2.433594 15.832031 0 12.566406 0 8.714844 C 0 3.902344 3.804688 0 8.5 0 "/>
</g>
</svg>
