<?xml version="1.0" encoding="UTF-8"?>
<svg xmlns="http://www.w3.org/2000/svg" xmlns:xlink="http://www.w3.org/1999/xlink" width="17px" height="17px" viewBox="0 0 17 17" version="1.1">
<defs>
<linearGradient id="linear0" gradientUnits="userSpaceOnUse" x1="19.368999" y1="6.256" x2="32.915001" y2="43.472" gradientTransform="matrix(0.354167,0,0,0.354167,0,0)">
<stop offset="0" style="stop-color:rgb(87.45098%,91.372549%,94.901961%);stop-opacity:1;"/>
<stop offset="0.391" style="stop-color:rgb(83.921569%,87.843137%,91.372549%);stop-opacity:1;"/>
<stop offset="1" style="stop-color:rgb(74.901961%,78.431373%,81.960784%);stop-opacity:1;"/>
</linearGradient>
<linearGradient id="linear1" gradientUnits="userSpaceOnUse" x1="24" y1="2.152" x2="24" y2="39.957001" gradientTransform="matrix(0.354167,0,0,0.354167,0,0)">
<stop offset="0" style="stop-color:rgb(95.686275%,30.980392%,35.294118%);stop-opacity:1;"/>
<stop offset="0.443" style="stop-color:rgb(93.333333%,23.921569%,29.019608%);stop-opacity:1;"/>
<stop offset="1" style="stop-color:rgb(89.803922%,12.54902%,18.823529%);stop-opacity:1;"/>
</linearGradient>
<filter id="alpha" filterUnits="objectBoundingBox" x="0%" y="0%" width="100%" height="100%">
  <feColorMatrix type="matrix" in="SourceGraphic" values="0 0 0 0 1 0 0 0 0 1 0 0 0 0 1 0 0 0 1 0"/>
</filter>
<mask id="mask0">
  <g filter="url(#alpha)">
<rect x="0" y="0" width="17" height="17" style="fill:rgb(0%,0%,0%);fill-opacity:0.0509804;stroke:none;"/>
  </g>
</mask>
<clipPath id="clip1">
  <rect x="0" y="0" width="17" height="17"/>
</clipPath>
<g id="surface5" clip-path="url(#clip1)">
<path style=" stroke:none;fill-rule:nonzero;fill:rgb(0%,0%,0%);fill-opacity:1;" d="M 8.5 2.125 L 13.097656 12.042969 L 11.539062 12.042969 L 10.550781 9.917969 L 6.449219 9.917969 L 5.460938 12.042969 L 3.902344 12.042969 L 8.5 2.125 M 7.105469 8.5 L 9.894531 8.5 L 8.5 5.492188 L 7.105469 8.5 M 8.855469 0.519531 L 8.179688 1.972656 L 3.578125 11.890625 L 3.347656 12.394531 L 5.6875 12.394531 L 5.785156 12.191406 L 6.671875 10.269531 L 8.144531 10.269531 L 8.5 10.273438 L 10.328125 10.273438 L 11.21875 12.191406 L 11.3125 12.398438 L 13.65625 12.398438 L 13.421875 11.894531 L 8.855469 2.046875 Z M 7.660156 8.144531 L 8.5 6.332031 L 9.339844 8.148438 L 8.855469 8.148438 L 8.5 8.144531 Z M 7.660156 8.144531 "/>
</g>
<mask id="mask1">
  <g filter="url(#alpha)">
<rect x="0" y="0" width="17" height="17" style="fill:rgb(0%,0%,0%);fill-opacity:0.0705882;stroke:none;"/>
  </g>
</mask>
<clipPath id="clip2">
  <rect x="0" y="0" width="17" height="17"/>
</clipPath>
<g id="surface8" clip-path="url(#clip2)">
<path style=" stroke:none;fill-rule:nonzero;fill:rgb(0%,0%,0%);fill-opacity:1;" d="M 8.5 2.125 L 13.097656 12.042969 L 11.539062 12.042969 L 10.550781 9.917969 L 6.449219 9.917969 L 5.460938 12.042969 L 3.902344 12.042969 L 8.5 2.125 M 7.105469 8.5 L 9.894531 8.5 L 8.5 5.492188 L 7.105469 8.5 M 8.675781 1.320312 L 8.339844 2.050781 L 3.738281 11.96875 L 3.625 12.21875 L 5.574219 12.21875 L 5.621094 12.117188 L 6.558594 10.09375 L 10.4375 10.09375 L 11.378906 12.117188 L 11.425781 12.21875 L 13.375 12.21875 L 13.261719 11.96875 L 8.675781 2.085938 Z M 7.382812 8.324219 L 8.5 5.914062 L 9.617188 8.324219 Z M 7.382812 8.324219 "/>
</g>
</defs>
<g id="surface1">
<path style=" stroke:none;fill-rule:nonzero;fill:url(#linear0);" d="M 8.132812 0.828125 L 1.871094 3.007812 C 1.398438 3.171875 1.105469 3.644531 1.167969 4.140625 L 2.167969 12.351562 C 2.210938 12.691406 2.414062 12.992188 2.714844 13.15625 L 7.972656 16.015625 C 8.292969 16.1875 8.675781 16.1875 8.992188 16.011719 L 14.289062 13.109375 C 14.589844 12.945312 14.789062 12.648438 14.832031 12.308594 L 15.832031 4.101562 C 15.894531 3.601562 15.597656 3.128906 15.121094 2.964844 L 8.824219 0.824219 C 8.597656 0.75 8.355469 0.75 8.132812 0.828125 Z M 8.132812 0.828125 "/>
<path style=" stroke:none;fill-rule:nonzero;fill:url(#linear1);" d="M 15.09375 4.300781 L 14.152344 12.042969 C 14.125 12.269531 13.988281 12.464844 13.789062 12.578125 L 8.832031 15.230469 C 8.726562 15.285156 8.613281 15.3125 8.5 15.3125 C 8.480469 15.3125 8.46875 15.308594 8.449219 15.308594 C 8.355469 15.304688 8.257812 15.277344 8.167969 15.230469 L 3.210938 12.621094 C 3.015625 12.511719 2.875 12.3125 2.847656 12.085938 L 1.90625 4.335938 C 1.863281 4.003906 2.0625 3.691406 2.371094 3.582031 L 8.257812 1.5 C 8.324219 1.480469 8.386719 1.464844 8.449219 1.464844 C 8.46875 1.460938 8.480469 1.460938 8.5 1.460938 C 8.578125 1.460938 8.65625 1.476562 8.734375 1.5 C 9.292969 1.703125 10.929688 2.292969 14.621094 3.542969 C 14.933594 3.652344 15.136719 3.964844 15.09375 4.300781 Z M 15.09375 4.300781 "/>
<path style=" stroke:none;fill-rule:nonzero;fill:rgb(100%,100%,100%);fill-opacity:1;" d="M 3.902344 12.042969 L 5.460938 12.042969 L 8.5 5.492188 L 8.5 2.125 Z M 3.902344 12.042969 "/>
<path style=" stroke:none;fill-rule:nonzero;fill:rgb(100%,100%,100%);fill-opacity:1;" d="M 6.375 8.5 L 8.5 8.5 L 8.5 9.917969 L 6.375 9.917969 Z M 6.375 8.5 "/>
<path style=" stroke:none;fill-rule:nonzero;fill:rgb(70.19608%,8.235294%,13.725491%);fill-opacity:1;" d="M 15.09375 4.300781 L 14.152344 12.042969 C 14.125 12.269531 13.988281 12.464844 13.789062 12.578125 L 8.832031 15.230469 C 8.726562 15.285156 8.613281 15.3125 8.5 15.3125 L 8.5 1.460938 C 8.578125 1.460938 8.65625 1.476562 8.734375 1.5 C 9.292969 1.703125 10.929688 2.292969 14.621094 3.542969 C 14.933594 3.652344 15.136719 3.964844 15.09375 4.300781 Z M 15.09375 4.300781 "/>
<path style=" stroke:none;fill-rule:nonzero;fill:rgb(74.901962%,78.431374%,81.960785%);fill-opacity:1;" d="M 8.5 2.125 L 8.5 5.492188 L 11.539062 12.042969 L 13.097656 12.042969 Z M 8.5 2.125 "/>
<path style=" stroke:none;fill-rule:nonzero;fill:rgb(74.901962%,78.431374%,81.960785%);fill-opacity:1;" d="M 8.5 8.5 L 10.625 8.5 L 10.625 9.917969 L 8.5 9.917969 Z M 8.5 8.5 "/>
<use xlink:href="#surface5" mask="url(#mask0)"/>
<use xlink:href="#surface8" mask="url(#mask1)"/>
</g>
</svg>
