<?xml version="1.0" encoding="UTF-8"?>
<svg xmlns="http://www.w3.org/2000/svg" xmlns:xlink="http://www.w3.org/1999/xlink" width="17px" height="17px" viewBox="0 0 17 17" version="1.1">
<g id="surface1">
<rect x="0" y="0" width="17" height="17" style="fill:rgb(96.862745%,87.450981%,11.764706%);fill-opacity:1;stroke:none;"/>
<path style=" stroke:none;fill-rule:nonzero;fill:rgb(0%,0%,0%);fill-opacity:1;" d="M 4.46875 14.207031 L 5.769531 13.417969 C 6.023438 13.863281 6.25 14.242188 6.796875 14.242188 C 7.324219 14.242188 7.652344 14.035156 7.652344 13.238281 L 7.652344 7.804688 L 9.25 7.804688 L 9.25 13.257812 C 9.25 14.914062 8.28125 15.667969 6.867188 15.667969 C 5.589844 15.667969 4.847656 15.003906 4.46875 14.207031 "/>
<path style=" stroke:none;fill-rule:nonzero;fill:rgb(0%,0%,0%);fill-opacity:1;" d="M 10.117188 14.035156 L 11.417969 13.28125 C 11.761719 13.839844 12.207031 14.253906 12.996094 14.253906 C 13.65625 14.253906 14.078125 13.921875 14.078125 13.464844 C 14.078125 12.917969 13.644531 12.722656 12.914062 12.402344 L 12.515625 12.230469 C 11.363281 11.742188 10.597656 11.125 10.597656 9.824219 C 10.597656 8.625 11.511719 7.714844 12.9375 7.714844 C 13.953125 7.714844 14.683594 8.066406 15.207031 8.992188 L 13.964844 9.789062 C 13.691406 9.300781 13.394531 9.105469 12.9375 9.105469 C 12.46875 9.105469 12.171875 9.402344 12.171875 9.789062 C 12.171875 10.269531 12.46875 10.464844 13.15625 10.761719 L 13.554688 10.929688 C 14.910156 11.511719 15.675781 12.105469 15.675781 13.441406 C 15.675781 14.878906 14.546875 15.667969 13.027344 15.667969 C 11.546875 15.667969 10.585938 14.960938 10.117188 14.035156 "/>
</g>
</svg>
