<?xml version="1.0" encoding="UTF-8"?>
<svg xmlns="http://www.w3.org/2000/svg" xmlns:xlink="http://www.w3.org/1999/xlink" width="17px" height="17px" viewBox="0 0 17 17" version="1.1">
<g id="surface1">
<path style=" stroke:none;fill-rule:nonzero;fill:rgb(32.549021%,61.960787%,26.274511%);fill-opacity:1;" d="M 8.5 16.96875 C 8.265625 16.96875 8.046875 16.90625 7.84375 16.796875 L 5.773438 15.566406 C 5.460938 15.394531 5.617188 15.332031 5.710938 15.300781 C 6.128906 15.160156 6.207031 15.128906 6.644531 14.878906 C 6.691406 14.847656 6.753906 14.863281 6.800781 14.894531 L 8.390625 15.847656 C 8.453125 15.878906 8.53125 15.878906 8.578125 15.847656 L 14.796875 12.246094 C 14.859375 12.214844 14.890625 12.152344 14.890625 12.074219 L 14.890625 4.886719 C 14.890625 4.808594 14.859375 4.746094 14.796875 4.714844 L 8.578125 1.128906 C 8.515625 1.097656 8.4375 1.097656 8.390625 1.128906 L 2.171875 4.714844 C 2.109375 4.746094 2.078125 4.824219 2.078125 4.886719 L 2.078125 12.074219 C 2.078125 12.136719 2.109375 12.214844 2.171875 12.246094 L 3.871094 13.226562 C 4.789062 13.695312 5.367188 13.148438 5.367188 12.605469 L 5.367188 5.511719 C 5.367188 5.417969 5.445312 5.324219 5.554688 5.324219 L 6.347656 5.324219 C 6.441406 5.324219 6.535156 5.402344 6.535156 5.511719 L 6.535156 12.605469 C 6.535156 13.835938 5.867188 14.550781 4.695312 14.550781 C 4.335938 14.550781 4.058594 14.550781 3.261719 14.164062 L 1.625 13.226562 C 1.21875 12.992188 0.96875 12.558594 0.96875 12.089844 L 0.96875 4.902344 C 0.96875 4.433594 1.21875 4 1.625 3.765625 L 7.84375 0.164062 C 8.234375 -0.0546875 8.765625 -0.0546875 9.15625 0.164062 L 15.375 3.765625 C 15.78125 4 16.03125 4.433594 16.03125 4.902344 L 16.03125 12.089844 C 16.03125 12.558594 15.78125 12.992188 15.375 13.226562 L 9.15625 16.828125 C 8.953125 16.921875 8.71875 16.96875 8.5 16.96875 Z M 10.417969 12.027344 C 7.6875 12.027344 7.128906 10.78125 7.128906 9.71875 C 7.128906 9.625 7.207031 9.53125 7.316406 9.53125 L 8.125 9.53125 C 8.21875 9.53125 8.296875 9.59375 8.296875 9.6875 C 8.421875 10.515625 8.78125 10.921875 10.433594 10.921875 C 11.742188 10.921875 12.304688 10.625 12.304688 9.921875 C 12.304688 9.515625 12.148438 9.222656 10.105469 9.019531 C 8.40625 8.847656 7.347656 8.472656 7.347656 7.117188 C 7.347656 5.855469 8.40625 5.105469 10.183594 5.105469 C 12.179688 5.105469 13.160156 5.792969 13.285156 7.289062 C 13.285156 7.335938 13.269531 7.382812 13.238281 7.429688 C 13.207031 7.460938 13.160156 7.492188 13.113281 7.492188 L 12.304688 7.492188 C 12.226562 7.492188 12.148438 7.429688 12.132812 7.351562 C 11.945312 6.492188 11.460938 6.210938 10.183594 6.210938 C 8.75 6.210938 8.578125 6.710938 8.578125 7.085938 C 8.578125 7.539062 8.78125 7.675781 10.714844 7.925781 C 12.632812 8.175781 13.535156 8.535156 13.535156 9.875 C 13.519531 11.246094 12.398438 12.027344 10.417969 12.027344 Z M 10.417969 12.027344 "/>
</g>
</svg>
