<?xml version="1.0" encoding="UTF-8"?>
<svg xmlns="http://www.w3.org/2000/svg" xmlns:xlink="http://www.w3.org/1999/xlink" width="17px" height="17px" viewBox="0 0 17 17" version="1.1">
<g id="surface1">
<path style=" stroke:none;fill-rule:evenodd;fill:rgb(100%,0%,0%);fill-opacity:1;" d="M 5.636719 13.394531 C 2.914062 13.394531 0.707031 11.195312 0.707031 8.472656 C 0.707031 5.75 2.914062 3.542969 5.636719 3.542969 L 11.363281 3.542969 C 14.085938 3.542969 16.292969 5.75 16.292969 8.472656 C 16.292969 11.195312 14.085938 13.394531 11.363281 13.394531 Z M 11.238281 11.65625 C 13 11.65625 14.425781 10.234375 14.425781 8.472656 C 14.425781 6.710938 13 5.28125 11.238281 5.28125 L 5.761719 5.28125 C 4 5.28125 2.574219 6.710938 2.574219 8.472656 C 2.574219 10.234375 4 11.65625 5.761719 11.65625 Z M 11.238281 11.65625 "/>
</g>
</svg>
