<?xml version="1.0" encoding="UTF-8"?>
<svg xmlns="http://www.w3.org/2000/svg" xmlns:xlink="http://www.w3.org/1999/xlink" width="17px" height="17px" viewBox="0 0 17 17" version="1.1">
<g id="surface1">
<path style=" stroke:none;fill-rule:evenodd;fill:rgb(0%,84.705883%,100%);fill-opacity:1;" d="M 9.691406 8.488281 C 9.691406 7.832031 9.15625 7.296875 8.5 7.296875 C 7.84375 7.296875 7.3125 7.832031 7.3125 8.488281 C 7.3125 9.144531 7.84375 9.675781 8.5 9.675781 C 9.15625 9.675781 9.691406 9.144531 9.691406 8.488281 Z M 9.691406 8.488281 "/>
<path style=" stroke:none;fill-rule:evenodd;fill:rgb(0%,84.705883%,100%);fill-opacity:1;" d="M 8.585938 5.980469 C 10.617188 5.996094 12.828125 6.144531 14.347656 7.496094 C 14.390625 7.535156 14.433594 7.578125 14.476562 7.621094 C 14.835938 7.984375 15.023438 8.574219 14.734375 9.0625 C 14.140625 10.058594 12.8125 10.492188 11.527344 10.757812 C 9.605469 11.160156 7.597656 11.164062 5.675781 10.8125 C 4.570312 10.609375 3.441406 10.253906 2.65625 9.507812 C 2.351562 9.21875 2.089844 8.835938 2.128906 8.414062 C 2.195312 7.726562 2.855469 7.289062 3.40625 6.988281 C 4.945312 6.160156 6.820312 5.976562 8.585938 5.980469 Z M 8.441406 6.292969 C 6.523438 6.304688 4.445312 6.429688 2.964844 7.65625 C 2.910156 7.699219 2.859375 7.742188 2.8125 7.789062 C 2.78125 7.820312 2.753906 7.851562 2.722656 7.882812 C 2.464844 8.175781 2.375 8.644531 2.617188 8.996094 C 2.867188 9.347656 3.242188 9.605469 3.628906 9.8125 C 5.070312 10.589844 6.777344 10.726562 8.441406 10.730469 C 10.128906 10.738281 11.863281 10.585938 13.351562 9.816406 C 13.945312 9.507812 14.613281 9.058594 14.589844 8.476562 C 14.566406 7.945312 14.050781 7.617188 13.660156 7.382812 C 13.554688 7.316406 13.445312 7.257812 13.335938 7.203125 C 11.859375 6.464844 10.128906 6.289062 8.441406 6.292969 Z M 8.441406 6.292969 "/>
<path style=" stroke:none;fill-rule:evenodd;fill:rgb(0%,84.705883%,100%);fill-opacity:1;" d="M 11.1875 2.84375 C 11.929688 2.863281 12.3125 3.753906 12.363281 4.414062 C 12.375 4.542969 12.378906 4.675781 12.375 4.804688 C 12.375 4.949219 12.367188 5.089844 12.355469 5.234375 C 12.199219 6.988281 11.394531 8.660156 10.453125 10.207031 C 9.527344 11.71875 8.402344 13.222656 6.871094 13.925781 C 6.363281 14.15625 5.761719 14.300781 5.3125 14.039062 C 4.699219 13.6875 4.628906 12.859375 4.640625 12.230469 C 4.644531 12.074219 4.65625 11.921875 4.671875 11.765625 C 4.90625 9.492188 6.058594 7.339844 7.5 5.484375 C 8.34375 4.402344 9.34375 3.328125 10.589844 2.9375 C 10.789062 2.878906 10.945312 2.839844 11.1875 2.84375 Z M 11.152344 3.15625 C 10.28125 3.167969 9.5 3.8125 8.804688 4.484375 C 6.984375 6.246094 5.644531 8.59375 5.105469 11.050781 C 5.0625 11.242188 5.027344 11.433594 5 11.625 C 4.980469 11.777344 4.964844 11.925781 4.957031 12.078125 C 4.953125 12.195312 4.949219 12.316406 4.953125 12.4375 C 4.957031 12.53125 4.964844 12.625 4.972656 12.71875 C 4.980469 12.789062 4.992188 12.863281 5.003906 12.933594 C 5.015625 12.984375 5.027344 13.035156 5.039062 13.089844 C 5.050781 13.128906 5.0625 13.171875 5.074219 13.214844 C 5.183594 13.542969 5.464844 13.855469 5.839844 13.863281 C 6.71875 13.886719 7.542969 13.25 8.257812 12.554688 C 9.507812 11.335938 10.441406 9.800781 11.171875 8.191406 C 11.761719 6.890625 12.300781 5.476562 12 4.046875 C 11.988281 3.992188 11.972656 3.9375 11.960938 3.886719 C 11.945312 3.839844 11.933594 3.800781 11.917969 3.757812 C 11.800781 3.4375 11.527344 3.152344 11.152344 3.152344 Z M 11.152344 3.15625 "/>
<path style=" stroke:none;fill-rule:evenodd;fill:rgb(0%,84.705883%,100%);fill-opacity:1;" d="M 5.871094 2.855469 C 6.820312 2.871094 7.667969 3.515625 8.425781 4.234375 C 9.800781 5.546875 10.816406 7.21875 11.589844 8.976562 C 12.1875 10.339844 12.734375 11.867188 12.246094 13.304688 C 12.09375 13.757812 11.703125 14.171875 11.183594 14.183594 C 10.234375 14.199219 9.351562 13.507812 8.585938 12.765625 C 6.667969 10.894531 5.242188 8.429688 4.753906 5.8125 C 4.71875 5.625 4.691406 5.4375 4.671875 5.25 C 4.65625 5.09375 4.648438 4.9375 4.644531 4.785156 C 4.644531 4.65625 4.644531 4.53125 4.65625 4.40625 C 4.660156 4.324219 4.667969 4.242188 4.679688 4.160156 C 4.691406 4.082031 4.703125 4.003906 4.722656 3.925781 C 4.734375 3.875 4.746094 3.828125 4.761719 3.777344 C 4.902344 3.285156 5.277344 2.851562 5.871094 2.855469 Z M 5.835938 3.167969 C 5.28125 3.179688 5.027344 3.832031 4.976562 4.289062 C 4.96875 4.386719 4.960938 4.480469 4.957031 4.574219 C 4.953125 4.695312 4.957031 4.816406 4.960938 4.9375 C 5.050781 6.691406 5.832031 8.386719 6.777344 9.9375 C 7.667969 11.398438 8.742188 12.855469 10.222656 13.601562 C 10.648438 13.816406 11.167969 13.988281 11.539062 13.785156 C 12 13.527344 12.058594 12.917969 12.082031 12.460938 C 12.089844 12.339844 12.089844 12.214844 12.085938 12.089844 C 12.082031 11.933594 12.070312 11.777344 12.050781 11.625 C 11.878906 10.179688 11.242188 8.8125 10.503906 7.523438 C 9.589844 5.914062 8.472656 4.316406 6.886719 3.476562 C 6.558594 3.304688 6.203125 3.164062 5.835938 3.167969 Z M 5.835938 3.167969 "/>
</g>
</svg>
