<?xml version="1.0" encoding="UTF-8"?>
<svg xmlns="http://www.w3.org/2000/svg" xmlns:xlink="http://www.w3.org/1999/xlink" width="20px" height="17px" viewBox="0 0 17 17" version="1.1">
<g id="surface1">
<path style=" stroke:none;fill-rule:nonzero;fill:rgb(0%,47.843137%,80.000001%);fill-opacity:1;" d="M 12.65625 4.378906 C 13.109375 4.484375 13.519531 4.722656 13.839844 5.058594 C 14.015625 5.242188 14.167969 5.445312 14.292969 5.667969 C 14.296875 5.691406 13.476562 6.242188 12.980469 6.550781 C 12.960938 6.5625 12.890625 6.484375 12.808594 6.363281 C 12.625 6.046875 12.289062 5.84375 11.921875 5.832031 C 11.347656 5.792969 10.980469 6.09375 10.984375 6.59375 C 10.976562 6.71875 11.003906 6.839844 11.0625 6.949219 C 11.191406 7.207031 11.421875 7.363281 12.15625 7.683594 C 13.507812 8.265625 14.089844 8.648438 14.449219 9.191406 C 14.855469 9.890625 14.9375 10.730469 14.667969 11.496094 C 14.296875 12.335938 13.496094 12.910156 12.578125 12.988281 C 12.101562 13.046875 11.617188 13.039062 11.140625 12.976562 C 10.410156 12.855469 9.738281 12.503906 9.21875 11.972656 C 9.023438 11.753906 8.859375 11.507812 8.726562 11.246094 C 8.78125 11.203125 8.839844 11.167969 8.902344 11.136719 C 8.984375 11.085938 9.304688 10.90625 9.601562 10.730469 L 10.148438 10.414062 L 10.261719 10.578125 C 10.453125 10.851562 10.695312 11.085938 10.976562 11.265625 C 11.558594 11.582031 12.269531 11.546875 12.816406 11.171875 C 13.101562 10.894531 13.144531 10.453125 12.921875 10.121094 C 12.773438 9.914062 12.476562 9.738281 11.625 9.367188 C 10.957031 9.140625 10.347656 8.769531 9.84375 8.277344 C 9.605469 8.003906 9.425781 7.679688 9.324219 7.332031 C 9.25 6.933594 9.238281 6.527344 9.292969 6.125 C 9.496094 5.183594 10.269531 4.464844 11.226562 4.335938 C 11.703125 4.277344 12.1875 4.292969 12.65625 4.378906 Z M 8.226562 5.167969 L 8.230469 5.9375 L 5.773438 5.9375 L 5.773438 12.925781 L 4.039062 12.925781 L 4.039062 5.941406 L 1.578125 5.941406 L 1.578125 5.183594 C 1.570312 4.921875 1.578125 4.664062 1.597656 4.402344 C 1.609375 4.390625 3.105469 4.386719 4.917969 4.386719 L 8.214844 4.398438 Z M 8.226562 5.167969 "/>
</g>
</svg>
